<?xml version="1.0" encoding="UTF-8"?>
<svg id="Layer_2" data-name="Layer 2" xmlns="http://www.w3.org/2000/svg" xmlns:xlink="http://www.w3.org/1999/xlink" viewBox="0 0 500.05 512.5">
  <defs>
    <style>
      .cls-1 {
        fill: url(#linear-gradient);
      }
    </style>
    <linearGradient id="linear-gradient" x1="46.29" y1="419.1" x2="403.25" y2="62.14" gradientUnits="userSpaceOnUse">
      <stop offset="0" stop-color="#365abd"/>
      <stop offset="1" stop-color="#009cde"/>
    </linearGradient>
  </defs>
  <g id="Layer_3" data-name="Layer 3">
    <path id="Color" class="cls-1" d="M125.05,362.5c0,13.81-11.19,25-25,25H25.05c-13.81,0-25-11.19-25-25v-75c0-13.81,11.19-25,25-25h75c13.81,0,25,11.19,25,25v75ZM250.05,12.5h-72.07c-3.54,0-6.92-1.49-9.28-4.13-5.08-5.7-12.73-9.06-21.13-8.25-12.08,1.16-21.71,11.14-22.48,23.26-.92,14.54,10.6,26.62,24.95,26.62,7.4,0,14.05-3.22,18.62-8.33,2.31-2.59,5.54-4.17,9.01-4.17h59.51c6.18,0,11.72,4.34,12.69,10.45,1.24,7.81-4.76,14.55-12.34,14.55H52.93c-3.54,0-6.92-1.49-9.28-4.13-5.08-5.7-12.73-9.06-21.13-8.25C10.44,51.28.82,61.26.05,73.38c-.92,14.54,10.6,26.62,24.95,26.62,7.4,0,14.05-3.22,18.62-8.33,2.31-2.59,5.54-4.17,9.01-4.17h109.56c6.18,0,11.72,4.34,12.69,10.45,1.24,7.81-4.76,14.55-12.34,14.55h-34.57c-3.54,0-6.92-1.49-9.28-4.13-5.08-5.7-12.73-9.06-21.13-8.25-12.08,1.16-21.71,11.14-22.48,23.26-.92,14.54,10.6,26.62,24.95,26.62,7.4,0,14.05-3.22,18.62-8.33,2.31-2.59,5.54-4.17,9.01-4.17h122.36c69.04,0,125,55.96,125,125h0c0,69.04-55.96,125-125,125h-100c-13.81,0-25,11.19-25,25v75c0,13.81,11.19,25,25,25h100c138.07,0,250-111.93,250-250h0c0-138.07-111.93-250-250-250ZM237.5,112.5h-25c-6.9,0-12.5-5.6-12.5-12.5s5.6-12.5,12.5-12.5h25c6.9,0,12.5,5.6,12.5,12.5s-5.6,12.5-12.5,12.5Z"/>
  </g>
</svg>